<?xml version="1.0" encoding="UTF-8"?>
<!DOCTYPE svg PUBLIC "-//W3C//DTD SVG 1.1//EN" "http://www.w3.org/Graphics/SVG/1.1/DTD/svg11.dtd">
<svg xmlns="http://www.w3.org/2000/svg" version="1.1" width="1552px" height="1114px" style="shape-rendering:geometricPrecision; text-rendering:geometricPrecision; image-rendering:optimizeQuality; fill-rule:evenodd; clip-rule:evenodd" xmlns:xlink="http://www.w3.org/1999/xlink">
<g><path style="opacity:0.999" fill="#e5faf2" d="M 341.5,-0.5 C 341.833,-0.5 342.167,-0.5 342.5,-0.5C 385.856,24.2659 429.356,48.9326 473,73.5C 482.275,122.818 491.442,172.151 500.5,221.5C 469.765,255.979 439.265,290.646 409,325.5C 406.618,328.219 403.951,330.553 401,332.5C 351.821,329.077 302.654,325.41 253.5,321.5C 224.291,280.795 195.291,239.962 166.5,199C 179.336,150.997 192.669,103.163 206.5,55.5C 251.704,37.0568 296.704,18.3902 341.5,-0.5 Z"/></g>
<g><path style="opacity:1" fill="#e5faf2" d="M 1551.5,416.5 C 1551.5,417.5 1551.5,418.5 1551.5,419.5C 1513.47,521.915 1475.8,624.581 1438.5,727.5C 1332.64,761.09 1226.81,794.756 1121,828.5C 1026.4,766.893 932.063,704.893 838,642.5C 825.784,531.89 814.45,421.224 804,310.5C 883.651,235.016 963.151,159.349 1042.5,83.5C 1153.46,99.4706 1264.46,115.304 1375.5,131C 1434.03,226.339 1492.7,321.505 1551.5,416.5 Z"/></g>
<g><path style="opacity:0.999" fill="#e5faf2" d="M 229.5,1113.5 C 229.167,1113.5 228.833,1113.5 228.5,1113.5C 159.075,1064.28 89.4084,1015.28 19.5,966.5C 12.588,881.386 5.92134,796.386 -0.5,711.5C -0.5,709.5 -0.5,707.5 -0.5,705.5C 61.7973,647.038 123.964,588.371 186,529.5C 270.05,542.888 354.05,556.555 438,570.5C 480.167,645.5 522.333,720.5 564.5,795.5C 533.569,875.794 502.735,956.128 472,1036.5C 391.227,1062.48 310.394,1088.15 229.5,1113.5 Z"/></g>
</svg>
