<?xml version="1.0" encoding="UTF-8"?>
<!DOCTYPE svg PUBLIC "-//W3C//DTD SVG 1.1//EN" "http://www.w3.org/Graphics/SVG/1.1/DTD/svg11.dtd">
<svg xmlns="http://www.w3.org/2000/svg" version="1.1" width="122px" height="121px" style="shape-rendering:geometricPrecision; text-rendering:geometricPrecision; image-rendering:optimizeQuality; fill-rule:evenodd; clip-rule:evenodd" xmlns:xlink="http://www.w3.org/1999/xlink">
<g><path style="opacity:0.939" fill="#005036" d="M 121.5,48.5 C 121.5,48.8333 121.5,49.1667 121.5,49.5C 115.528,66.4114 109.528,83.4114 103.5,100.5C 86.654,106.998 69.9873,113.664 53.5,120.5C 53.1667,120.5 52.8333,120.5 52.5,120.5C 37.2297,111.526 21.8964,102.526 6.5,93.5C 4.15338,78.0312 1.82005,62.6978 -0.5,47.5C -0.5,44.5 -0.5,41.5 -0.5,38.5C 11.6331,26.1988 23.6331,13.6988 35.5,1C 53.8546,1.28329 72.188,2.28329 90.5,4C 101.213,18.6004 111.546,33.4337 121.5,48.5 Z"/></g>
<g><path style="opacity:1" fill="#028c5e" d="M 38.5,8.5 C 54.5284,9.03109 70.5284,10.0311 86.5,11.5C 95.0434,24.0872 103.71,36.5872 112.5,49C 107.747,63.8399 102.914,78.6733 98,93.5C 83.7649,99.6908 69.4316,105.691 55,111.5C 41.2923,104.44 27.7923,97.107 14.5,89.5C 11.0928,73.9734 8.92612,58.3068 8,42.5C 18.0036,30.9977 28.1703,19.6643 38.5,8.5 Z"/></g>
<g><path style="opacity:1" fill="#02c887" d="M 41.5,17.5 C 54.5118,18.0839 67.5118,18.9173 80.5,20C 87.5,30.3333 94.5,40.6667 101.5,51C 97.5795,63.1775 93.5795,75.3441 89.5,87.5C 78.0242,92.6014 66.5242,97.6014 55,102.5C 43.6315,96.3214 32.6315,89.6547 22,82.5C 20.9463,73.4571 19.6129,64.4571 18,55.5C 17.3333,51.8333 17.3333,48.1667 18,44.5C 26.4381,35.9042 34.2714,26.9042 41.5,17.5 Z"/></g>
</svg>
